<?xml version="1.0" encoding="utf-8"?>
<!-- Generator: Adobe Illustrator 16.0.0, SVG Export Plug-In . SVG Version: 6.00 Build 0)  -->
<!DOCTYPE svg PUBLIC "-//W3C//DTD SVG 1.1//EN" "http://www.w3.org/Graphics/SVG/1.1/DTD/svg11.dtd">
<svg version="1.1" id="Capa_1" xmlns="http://www.w3.org/2000/svg" xmlns:xlink="http://www.w3.org/1999/xlink" x="0px" y="0px"
	 width="500px" height="140px" viewBox="0 0 500 140" enable-background="new 0 0 500 140" xml:space="preserve">
<g>
	<path fill="#B3B3B3" d="M165.286,43.031h4.081v11.26h0.21c0.43-1.711,1.178-3.334,2.249-4.881c1.071-1.531,2.375-2.869,3.921-4.02
		c1.533-1.135,3.254-2.029,5.143-2.682c1.893-0.639,3.883-0.959,5.958-0.959c2.646,0,4.931,0.336,6.86,1.02
		c1.931,0.674,3.575,1.568,4.932,2.682c1.365,1.104,2.436,2.359,3.22,3.75c0.793,1.391,1.323,2.809,1.612,4.24h0.22
		c1.642-3.861,3.842-6.777,6.591-8.742c2.754-1.973,6.38-2.949,10.89-2.949c2.505,0,4.805,0.369,6.912,1.121
		c2.115,0.748,3.936,1.896,5.47,3.43c1.543,1.545,2.742,3.492,3.603,5.85c0.859,2.363,1.28,5.152,1.28,8.373v37.645h-4.071V60.412
		c0-3.506-0.541-6.262-1.61-8.262c-1.071-2.004-2.346-3.521-3.812-4.559c-1.467-1.037-2.934-1.678-4.393-1.934
		c-1.466-0.252-2.594-0.369-3.379-0.369c-2.503,0-4.813,0.42-6.921,1.281c-2.107,0.859-3.937,2.15-5.47,3.859
		c-1.536,1.721-2.737,3.846-3.59,6.381c-0.86,2.551-1.29,5.457-1.29,8.752v32.605h-4.08V60.412c0-3.43-0.517-6.172-1.552-8.211
		c-1.037-2.029-2.251-3.557-3.65-4.549c-1.391-1.004-2.825-1.654-4.29-1.943c-1.468-0.273-2.622-0.42-3.481-0.42
		c-1.93,0-3.937,0.391-6.011,1.182c-2.074,0.785-3.97,1.996-5.679,3.641c-1.721,1.645-3.112,3.76-4.192,6.33
		c-1.07,2.57-1.599,5.617-1.599,9.121v32.605h-4.081L165.286,43.031L165.286,43.031z"/>
	<path fill="#B3B3B3" d="M305.797,96.879h-4.079V85.08h-0.211c-0.718,2.072-1.737,3.918-3.062,5.527
		c-1.324,1.602-2.856,2.985-4.61,4.121c-1.752,1.147-3.665,2.01-5.739,2.58c-2.072,0.57-4.178,0.858-6.328,0.858
		c-3.213,0-5.951-0.396-8.199-1.178c-2.252-0.794-4.099-1.832-5.527-3.111c-1.43-1.29-2.557-2.739-3.374-4.351
		c-0.826-1.608-1.415-3.234-1.767-4.881c-0.367-1.641-0.578-3.233-0.65-4.77c-0.068-1.529-0.102-2.871-0.102-4.021V41.751h4.068
		v34.856c0,1.438,0.112,3.162,0.322,5.201c0.22,2.039,0.841,4.006,1.879,5.898c1.034,1.898,2.595,3.525,4.669,4.881
		c2.071,1.355,4.995,2.039,8.79,2.039c3.075,0,5.84-0.572,8.309-1.721c2.472-1.143,4.562-2.729,6.28-4.771
		c1.71-2.038,3.017-4.463,3.911-7.29c0.893-2.83,1.341-5.914,1.341-9.277V41.751h4.079V96.879z"/>
	<path fill="#B3B3B3" d="M332.73,78.977c0.138,2.513,0.699,4.738,1.682,6.658c0.97,1.92,2.249,3.566,3.822,4.928
		c1.574,1.367,3.414,2.397,5.507,3.101c2.103,0.69,4.364,1.044,6.813,1.044c1.746,0,3.618-0.155,5.611-0.479
		c1.996-0.313,3.85-0.89,5.564-1.722c1.705-0.841,3.121-2.011,4.244-3.519c1.119-1.499,1.683-3.403,1.683-5.711
		c0-3.008-0.918-5.283-2.729-6.814c-1.824-1.543-4.115-2.73-6.876-3.57c-2.76-0.841-5.726-1.523-8.905-2.043
		c-3.184-0.53-6.158-1.312-8.918-2.355c-2.762-1.057-5.054-2.537-6.873-4.462c-1.814-1.928-2.72-4.734-2.72-8.444
		c0-2.653,0.593-4.871,1.781-6.661c1.185-1.779,2.711-3.196,4.562-4.242c1.848-1.047,3.935-1.805,6.242-2.257
		c2.308-0.456,4.606-0.676,6.913-0.676c2.802,0,5.421,0.312,7.872,0.938c2.445,0.637,4.557,1.651,6.344,3.041
		c1.78,1.403,3.181,3.182,4.194,5.348c1.015,2.169,1.517,4.789,1.517,7.872h-3.979c0-2.445-0.405-4.548-1.211-6.296
		c-0.8-1.747-1.923-3.164-3.354-4.245c-1.435-1.087-3.125-1.887-5.084-2.415c-1.961-0.527-4.055-0.782-6.297-0.782
		c-1.813,0-3.65,0.174-5.506,0.519c-1.846,0.357-3.51,0.95-4.977,1.792c-1.467,0.832-2.674,1.919-3.619,3.245
		c-0.946,1.325-1.417,2.933-1.417,4.82c0,2.168,0.528,3.914,1.575,5.249c1.047,1.326,2.43,2.391,4.146,3.195
		c1.711,0.803,3.634,1.455,5.769,1.941c2.125,0.482,4.276,0.978,6.444,1.464c2.661,0.495,5.157,1.072,7.499,1.731
		c2.34,0.67,4.366,1.572,6.082,2.728c1.715,1.154,3.059,2.64,4.038,4.459c0.979,1.812,1.468,4.121,1.468,6.924
		c0,2.934-0.67,5.35-1.996,7.234c-1.326,1.889-3,3.401-5.033,4.555c-2.029,1.156-4.277,1.963-6.76,2.418
		c-2.48,0.451-4.912,0.684-7.293,0.684c-3.074,0-5.926-0.404-8.546-1.212c-2.62-0.796-4.913-2.026-6.862-3.667
		c-1.965-1.639-3.498-3.646-4.614-6.033c-1.123-2.371-1.718-5.135-1.781-8.279h3.979V78.977z"/>
	<path fill="#B3B3B3" d="M392.607,78.977c0.14,2.513,0.699,4.738,1.683,6.658c0.97,1.92,2.248,3.566,3.824,4.928
		c1.573,1.367,3.412,2.397,5.506,3.101c2.102,0.69,4.365,1.044,6.812,1.044c1.745,0,3.618-0.155,5.611-0.479
		c1.996-0.313,3.849-0.89,5.562-1.722c1.707-0.841,3.126-2.011,4.248-3.519c1.12-1.499,1.681-3.403,1.681-5.711
		c0-3.008-0.916-5.283-2.728-6.814c-1.824-1.543-4.114-2.73-6.876-3.57c-2.76-0.841-5.726-1.523-8.905-2.043
		c-3.185-0.53-6.157-1.312-8.92-2.355c-2.76-1.057-5.052-2.537-6.871-4.462c-1.813-1.928-2.719-4.734-2.719-8.444
		c0-2.653,0.59-4.871,1.779-6.661c1.186-1.779,2.711-3.196,4.557-4.242c1.854-1.047,3.94-1.805,6.247-2.257
		c2.304-0.456,4.605-0.676,6.913-0.676c2.804,0,5.421,0.312,7.872,0.938c2.446,0.637,4.557,1.651,6.345,3.041
		c1.78,1.403,3.181,3.182,4.193,5.348c1.016,2.169,1.518,4.789,1.518,7.872h-3.979c0-2.445-0.405-4.548-1.212-6.296
		c-0.798-1.747-1.921-3.164-3.354-4.245c-1.434-1.087-3.133-1.887-5.085-2.415c-1.961-0.527-4.054-0.782-6.297-0.782
		c-1.812,0-3.649,0.174-5.506,0.519c-1.845,0.357-3.509,0.95-4.976,1.792c-1.468,0.832-2.68,1.919-3.619,3.245
		c-0.946,1.325-1.418,2.933-1.418,4.82c0,2.168,0.53,3.914,1.577,5.249c1.046,1.326,2.428,2.391,4.145,3.195
		c1.704,0.803,3.634,1.455,5.758,1.941c2.136,0.482,4.286,0.978,6.456,1.464c2.651,0.495,5.156,1.072,7.499,1.731
		c2.339,0.67,4.364,1.572,6.081,2.728c1.714,1.154,3.058,2.64,4.039,4.459c0.979,1.812,1.466,4.121,1.466,6.924
		c0,2.934-0.67,5.35-1.995,7.234c-1.324,1.889-3.008,3.401-5.036,4.555c-2.026,1.156-4.275,1.963-6.757,2.418
		c-2.482,0.451-4.911,0.684-7.293,0.684c-3.075,0-5.927-0.404-8.545-1.212c-2.623-0.796-4.915-2.026-6.862-3.667
		c-1.965-1.639-3.498-3.646-4.616-6.033c-1.123-2.371-1.716-5.135-1.785-8.279h3.983V78.977z"/>
	<path fill="#B3B3B3" d="M474.562,45.797h-12.17V84.82c0,2.234,0.243,4.01,0.759,5.316c0.503,1.307,1.279,2.299,2.333,2.987
		c1.048,0.698,2.321,1.103,3.809,1.249c1.483,0.146,3.201,0.182,5.156,0.109v3.59c-2.103,0.142-4.143,0.126-6.142-0.053
		c-1.988-0.188-3.747-0.724-5.267-1.631c-1.521-0.902-2.735-2.263-3.64-4.074c-0.905-1.819-1.292-4.312-1.145-7.496V45.797h-10.326
		v-3.585h10.326V24.825h4.135v17.387h12.169v3.585H474.562z"/>
</g>
<path fill="#B3B3B3" d="M0-0.525v140l500,0.025v-140L0-0.525z M496,136H144V4h352V136z M122,53.124L72,81.641V58.004l50-28.515
	V53.124z M98,96.357L122,82.1V111H98V96.357z M43,111H18V82.102l25,14.258V111z M97,70.052l25-14.257V79.43L97,93.688l-25,14.258
	V84.311L97,70.052z M69,58.004v26.289v23.635L45,94.583V44.642L69,58.004z M43,43.448v49.942L18,79.389V29.489L43,43.448z"/>
</svg>
